<svg width="31" height="31" viewBox="0 0 31 31" fill="none" xmlns="http://www.w3.org/2000/svg">
<circle cx="15.5" cy="15.5" r="15.5" fill="#FD7583"/>
<path d="M23.3538 9.13052L9.13049 23.3538C8.77361 23.7107 8.15162 23.668 7.74211 23.2585C7.3326 22.849 7.28988 22.227 7.64676 21.8701L21.8701 7.64679C22.2269 7.28991 22.8489 7.33263 23.2584 7.74214C23.6679 8.15165 23.7107 8.77364 23.3538 9.13052Z" fill="white"/>
<path d="M21.8712 23.3535L7.64789 9.13024C7.29101 8.77337 7.33373 8.15138 7.74324 7.74187C8.15275 7.33235 8.77474 7.28964 9.13162 7.64651L23.3549 21.8698C23.7118 22.2267 23.6691 22.8487 23.2596 23.2582C22.8501 23.6677 22.2281 23.7104 21.8712 23.3535Z" fill="white"/>
</svg>
