<svg width="31" height="31" viewBox="0 0 31 31" fill="none" xmlns="http://www.w3.org/2000/svg">
<circle cx="15.5" cy="15.5" r="15.5" fill="#9BCC37"/>
<path d="M12.9982 18.209C13.1386 18.0687 13.2141 17.9931 13.3113 17.8852C16.0105 15.1107 18.7096 12.347 21.4087 9.57251C21.7326 9.23784 22.0889 8.98954 22.5532 9.00034C23.1254 9.00034 23.5573 9.27023 23.8272 9.78842C24.0971 10.3066 24.0431 10.8248 23.7192 11.3106C23.622 11.451 23.5033 11.5697 23.3845 11.6885C20.3183 14.8408 17.2413 17.9823 14.175 21.1346C13.3653 21.9551 12.5987 21.9551 11.7998 21.1346C10.3746 19.6664 8.9387 18.1982 7.51355 16.73C6.98452 16.1794 6.85496 15.5317 7.16806 14.9379C7.63231 14.0311 8.75515 13.88 9.51092 14.6465C10.5798 15.726 11.627 16.8164 12.6959 17.9067C12.7715 18.0039 12.8039 18.0255 12.9982 18.209Z" fill="white"/>
</svg>
