<?xml version="1.0" standalone="no"?>
<!DOCTYPE svg PUBLIC "-//W3C//DTD SVG 20010904//EN"
 "http://www.w3.org/TR/2001/REC-SVG-20010904/DTD/svg10.dtd">
<svg version="1.0" xmlns="http://www.w3.org/2000/svg"
 width="424.000000pt" height="424.000000pt" viewBox="0 0 424.000000 424.000000"
 preserveAspectRatio="xMidYMid meet">
<metadata>
Created by potrace 1.14, written by Peter Selinger 2001-2017
</metadata>
<g transform="translate(0.000000,424.000000) scale(0.100000,-0.100000)"
fill="#000000" stroke="none">
<path d="M1387 3997 c-52 -86 -51 -127 3 -179 59 -56 88 -53 130 15 25 39 33
64 34 99 1 42 -3 52 -34 82 -19 18 -49 36 -66 39 -29 6 -33 2 -67 -56z"/>
<path d="M1907 3799 c-20 -12 -57 -80 -57 -106 0 -19 17 -41 227 -295 62 -75
129 -160 148 -188 40 -59 39 -64 -28 -104 -23 -13 -87 -74 -143 -134 -148
-160 -307 -399 -433 -650 -44 -87 -54 -102 -66 -92 -20 16 -51 120 -60 198 -8
70 -23 92 -65 92 -68 0 -99 -38 -101 -125 -2 -49 26 -158 41 -163 6 -2 24 -30
40 -63 17 -32 43 -68 60 -81 16 -12 30 -27 30 -34 0 -11 -51 -181 -65 -216 -3
-9 -20 -22 -36 -28 -29 -12 -59 -55 -59 -82 0 -7 11 -35 24 -63 23 -46 24 -56
19 -180 -7 -156 7 -291 48 -457 28 -113 90 -258 111 -258 4 0 8 14 8 32 0 17
7 54 16 82 l16 51 -37 108 c-27 80 -40 143 -52 247 -20 169 -13 186 41 104 63
-95 153 -200 234 -274 86 -77 276 -213 286 -203 3 3 14 -1 23 -9 35 -29 124
-78 143 -78 10 0 25 -9 32 -19 8 -11 40 -27 73 -36 88 -24 145 -46 145 -55 0
-16 -61 -59 -133 -95 -94 -46 -178 -54 -296 -30 -100 20 -162 41 -173 57 -5 9
-18 6 -49 -11 -24 -14 -60 -24 -85 -25 -24 0 -44 -4 -44 -8 0 -9 107 -74 156
-94 92 -39 334 -51 424 -21 80 28 184 93 253 159 l60 58 100 0 100 0 54 41
c30 22 52 46 50 52 -2 7 -26 26 -53 42 -27 17 -63 40 -79 51 l-29 22 31 59
c81 156 166 526 177 778 4 72 2 209 -3 305 -18 344 -92 552 -297 842 -89 126
-89 125 -63 139 12 6 49 19 83 28 68 19 181 89 238 148 41 43 70 92 61 106
-13 21 -93 45 -168 52 -49 4 -123 20 -190 42 -177 58 -271 110 -420 235 -89
73 -191 141 -230 152 -11 3 -28 1 -38 -5z m515 -468 c57 -22 148 -52 203 -66
55 -15 104 -30 108 -34 14 -13 -19 -31 -135 -75 l-112 -43 -16 21 c-9 12 -53
69 -98 129 -50 64 -77 107 -68 107 8 0 61 -18 118 -39z m194 -649 c89 -161
109 -208 142 -323 51 -176 57 -232 57 -509 -1 -349 -31 -551 -116 -782 -41
-113 -49 -123 -90 -109 -45 16 -89 14 -89 -3 0 -8 20 -26 45 -40 51 -30 53
-38 25 -66 -24 -24 -54 -21 -155 12 -164 54 -395 193 -553 333 -111 99 -340
413 -363 499 -12 44 -4 106 13 106 15 0 147 -40 308 -92 188 -61 440 -156 685
-258 121 -51 226 -95 234 -98 11 -4 13 18 7 139 -31 630 -99 1015 -226 1284
-36 75 -36 78 -10 47 15 -18 54 -81 86 -140z"/>
<path d="M1225 3446 c-67 -29 -92 -62 -105 -134 -13 -74 -10 -196 5 -211 14
-13 205 -36 236 -28 38 10 61 67 67 164 6 108 -5 133 -80 183 -65 43 -78 46
-123 26z"/>
<path d="M1685 996 c-98 -43 -152 -216 -94 -298 25 -35 90 -67 134 -68 45 0
116 40 142 79 50 74 52 140 6 219 -42 74 -114 100 -188 68z"/>
</g>
</svg>
